<svg width="47" height="87" viewBox="0 0 47 87" fill="none" xmlns="http://www.w3.org/2000/svg">
<g id="Group 9">
<g id="Scrapboard">
<path id="Vector" opacity="0.32" d="M14.5175 2.77736C12.3798 6.48051 15.0561 11.1098 19.3284 11.1098C23.6006 11.1098 26.2769 6.48051 24.1392 2.77736C22.0001 -0.925788 16.6551 -0.925788 14.5175 2.77736Z" fill="#9D9D9C"/>
<path id="Vector_2" d="M24.0079 16.9323V59.8016L14.0428 69.7667V82.82" stroke="#8B31B3" stroke-width="2" stroke-miterlimit="10" stroke-linecap="round"/>
<path id="Vector_3" d="M14.5054 82H14.4946C13.1169 82 12 83.1193 12 84.5C12 85.8807 13.1169 87 14.4946 87H14.5054C15.8831 87 17 85.8807 17 84.5C17 83.1193 15.8831 82 14.5054 82Z" fill="#8B31B3"/>
<g id="Group 8">
<path id="Vector_4" d="M9.6347 77.1181V15.1365L19.2168 5.55435" stroke="#1D1D1B" stroke-width="2" stroke-miterlimit="10" stroke-linecap="square"/>
<path id="Vector_5" d="M28.799 15.1365L39.173 25.5105V77.1181" stroke="#1D1D1B" stroke-width="2" stroke-miterlimit="10" stroke-linecap="square"/>
<path id="Vector_6" d="M3.00208 80.2857V63.8328L14.4258 52.4106V16.9369L19.1971 12.1611" stroke="#1D1D1B" stroke-width="2" stroke-miterlimit="10" stroke-linecap="round"/>
<path id="Vector_7" d="M19.2169 6.09145V40.1613L45.3099 66.2558V82.9024" stroke="#1D1D1B" stroke-width="2" stroke-miterlimit="10" stroke-linecap="round"/>
<path id="Vector_8" d="M19.2169 5.55435L28.799 15.1365V77.1181L28.8158 78.4577C28.8194 78.7557 28.7633 79.0513 28.6509 79.3272C28.5385 79.6031 28.372 79.8538 28.1612 80.0644C27.8492 80.378 27.4511 80.5917 27.0173 80.6786C26.5836 80.7655 26.1338 80.7215 25.7251 80.5523C25.3164 80.3831 24.9672 80.0963 24.7217 79.7282C24.4763 79.3602 24.3458 78.9275 24.3467 78.4852V76.6954C24.3466 76.4024 24.4043 76.1123 24.5163 75.8416C24.6284 75.5709 24.7926 75.3249 24.9998 75.1177L33.9807 66.1368V26.8547L28.7563 21.6303" stroke="#1D1D1B" stroke-width="2" stroke-miterlimit="10" stroke-linecap="round"/>
</g>
<path id="Vector_9" d="M2.50417 80H2.49583C1.11742 80 0 81.1193 0 82.5C0 83.8807 1.11742 85 2.49583 85H2.50417C3.88258 85 5 83.8807 5 82.5C5 81.1193 3.88258 80 2.50417 80Z" fill="#1D1D1B"/>
<path id="Vector_10" d="M9.50417 77H9.49583C8.11742 77 7 78.1193 7 79.5C7 80.8807 8.11742 82 9.49583 82H9.50417C10.8826 82 12 80.8807 12 79.5C12 78.1193 10.8826 77 9.50417 77Z" fill="#1D1D1B"/>
<path id="Vector_11" d="M38.5042 77H38.4958C37.1174 77 36 78.1193 36 79.5C36 80.8807 37.1174 82 38.4958 82H38.5042C39.8826 82 41 80.8807 41 79.5C41 78.1193 39.8826 77 38.5042 77Z" fill="#1D1D1B"/>
<path id="Vector_12" d="M44.5042 82H44.4958C43.1174 82 42 83.1193 42 84.5C42 85.8807 43.1174 87 44.4958 87H44.5042C45.8826 87 47 85.8807 47 84.5C47 83.1193 45.8826 82 44.5042 82Z" fill="#1D1D1B"/>
<g id="Vector_13">
<mask id="path-13-inside-1_29_34" fill="white">
<path d="M9.6378 77.2722H9.63017C8.65687 77.2722 7.86786 78.0612 7.86786 79.0345C7.86786 80.0078 8.65687 80.7968 9.63017 80.7968H9.6378C10.6111 80.7968 11.4001 80.0078 11.4001 79.0345C11.4001 78.0612 10.6111 77.2722 9.6378 77.2722Z"/>
</mask>
<path d="M9.63017 83.2722H9.6378V71.2722H9.63017V83.2722ZM9.6378 83.2722C7.2974 83.2722 5.40012 81.3749 5.40012 79.0345H17.4001C17.4001 74.7475 13.9248 71.2722 9.6378 71.2722V83.2722ZM5.40012 79.0345C5.40012 76.6941 7.29736 74.7968 9.6378 74.7968V86.7968C13.9248 86.7968 17.4001 83.3214 17.4001 79.0345H5.40012ZM9.6378 74.7968H9.63017V86.7968H9.6378V74.7968ZM9.63017 74.7968C11.9706 74.7968 13.8679 76.6941 13.8679 79.0345H1.86786C1.86786 83.3214 5.34313 86.7968 9.63017 86.7968V74.7968ZM13.8679 79.0345C13.8679 81.3749 11.9706 83.2722 9.63017 83.2722V71.2722C5.34317 71.2722 1.86786 74.7475 1.86786 79.0345H13.8679Z" fill="#1D1D1B" mask="url(#path-13-inside-1_29_34)"/>
</g>
</g>
</g>
</svg>
