<svg width="26" height="29" viewBox="0 0 26 29" fill="none" xmlns="http://www.w3.org/2000/svg">
<g id="Group 38">
<g id="Group">
<g id="Group_2">
<path id="Vector" d="M19.6907 0L18.8757 0.815004L22.8422 4.78144H6.01907C2.83164 4.78144 0.238586 7.37449 0.238586 10.5616V14.1551H1.39129V10.5616C1.39129 8.00996 3.46734 5.93414 6.01907 5.93414H22.8421L18.8757 9.90057L19.6907 10.7156L25.0485 5.35779L19.6907 0Z" fill="black"/>
</g>
</g>
<g id="Group_3">
<g id="Group_4">
<path id="Vector_2" d="M23.6572 14.3247V17.9182C23.6572 20.4699 21.5811 22.546 19.0294 22.546H2.2063L6.17273 18.5793L5.35773 17.7643L0 23.1224L5.35779 28.4802L6.17279 27.6652L2.20636 23.6987H19.0294C22.2168 23.6987 24.8099 21.1057 24.8099 17.9183V14.3248L23.6572 14.3247Z" fill="black"/>
</g>
</g>
</g>
</svg>
