<svg width="33" height="35" viewBox="0 0 33 35" fill="none" xmlns="http://www.w3.org/2000/svg">
<g id="Group">
<path id="Vector" d="M0.866155 33.5324L5.22307 25.9883L5.2234 25.9877L9.98194 17.7232L9.98227 17.7226L14.772 9.42901L14.772 9.42896L19.4022 1.41382H23.7388L23.873 1.9184L23.8731 1.91892L25.6835 8.69413L25.6834 8.69415L25.6861 8.70349L25.8629 9.31734L25.9671 9.67891H26.3434H30.6747L27.5461 15.09L27.4416 15.2707L27.4966 15.472L28.0787 17.6028L28.0792 17.6049L30.2988 25.8674L30.2989 25.8679L32.3487 33.5324H28.2442L26.1252 25.609L26.1246 25.6068L24.9551 21.314L24.64 20.1573L24.0399 21.1951L21.5575 25.4879L21.5573 25.4882L16.9116 33.5324H12.3414L16.6715 25.9888L16.6725 25.9871L21.4595 17.7238L21.4599 17.723L23.0955 14.8889L23.1989 14.7097L23.1454 14.5098L21.6851 9.05117L21.6847 9.04968L21.3376 7.73608L21.0353 6.59221L20.4256 7.60617L19.6349 8.92126L19.6348 8.92121L19.6298 8.92999L14.8698 17.2225L14.8688 17.2242L10.0818 25.4876L10.0815 25.4881L5.43373 33.5324H0.866155Z" stroke="black"/>
</g>
</svg>
