<svg width="38" height="38" viewBox="0 0 38 38" fill="none" xmlns="http://www.w3.org/2000/svg">
<g id="Group">
<g id="Group_2">
<path id="Vector" d="M35.0834 16.0833C33.615 16.0833 32.4021 17.1704 32.1996 18.5833H24.6225C24.5192 17.3304 24.0054 16.1654 23.1471 15.24L23.1771 15.27L28.9913 9.45583L28.6788 9.14333L22.8659 14.9563C21.9363 14.0838 20.7604 13.5604 19.4954 13.4558V5.80167H19.4867C20.9038 5.60292 21.9954 4.38875 21.9954 2.91667C21.9954 1.30583 20.6896 0 19.0788 0C17.4684 0 16.1621 1.30583 16.1621 2.91667C16.1621 4.38875 17.2542 5.60292 18.6713 5.80167H18.6621V13.4504C17.2942 13.5367 16.0204 14.1029 15.0454 15.0783C14.0967 16.0271 13.5325 17.2579 13.4234 18.5833H5.83337V19V19.4167H13.4179C13.5 20.7246 14.0259 21.9425 14.9234 22.8983L9.18587 28.6362C8.7717 28.2825 8.2567 28.0812 7.70587 28.0812C7.09378 28.0812 6.51837 28.3196 6.08545 28.7525C5.19212 29.6462 5.19212 31.0996 6.08545 31.9929C6.51837 32.4258 7.09378 32.6633 7.70587 32.6633C8.31837 32.6633 8.89378 32.4254 9.3267 31.9925C9.75962 31.5596 9.99795 30.9842 9.99795 30.3717C9.99795 29.8483 9.81462 29.3571 9.49253 28.9538L15.2388 23.2083C16.1863 24.0738 17.3813 24.5804 18.6621 24.6604V32.1979H18.6713C17.2542 32.3971 16.1621 33.6113 16.1621 35.0833C16.1621 36.6942 17.4684 38 19.0788 38C20.6896 38 21.9954 36.6942 21.9954 35.0833C21.9954 33.6113 20.9038 32.3971 19.4867 32.1979H19.4954V24.6558C20.7263 24.5542 21.8713 24.0554 22.7888 23.225L28.5317 28.9679L28.8442 28.6554L23.1059 22.9167C24.0146 21.9571 24.545 20.7325 24.6271 19.4167H32.1996C32.4021 20.83 33.6146 21.9167 35.0834 21.9167C36.6942 21.9167 38 20.6112 38 19C38 17.3892 36.6942 16.0833 35.0834 16.0833ZM24.1438 19.9946C24.1071 20.1983 24.0559 20.3979 23.9959 20.5938C24.0567 20.3967 24.1071 20.1971 24.1438 19.9946ZM9.03212 31.6983C8.67795 32.0525 8.20712 32.2475 7.70587 32.2475C7.20462 32.2475 6.7342 32.0521 6.38003 31.6988C5.6492 30.9679 5.6492 29.7779 6.38003 29.0471C6.7342 28.6929 7.20462 28.4979 7.70587 28.4979C8.20712 28.4979 8.67795 28.6933 9.03212 29.0471C9.3867 29.4013 9.58128 29.8721 9.58128 30.3729C9.58128 30.8742 9.38628 31.3446 9.03212 31.6983ZM18.8567 22.5921C19.7479 22.6329 20.6242 22.3388 21.3034 21.7663C20.6246 22.3383 19.7538 22.6342 18.8567 22.5921ZM21.2329 21.2654C20.6434 21.8546 19.8588 22.1792 19.0229 22.1792C18.1871 22.1792 17.4021 21.8546 16.8134 21.2654C16.2242 20.6763 15.8996 19.8917 15.8996 19.0558C15.8996 18.2204 16.2238 17.4354 16.8129 16.8463C17.4021 16.2571 18.1871 15.9329 19.0229 15.9329C19.8588 15.9329 20.6438 16.2575 21.2329 16.8463C22.4513 18.0642 22.4513 20.0467 21.2329 21.2654ZM24.1996 18.5833C24.1267 17.7812 23.8771 16.9925 23.4346 16.2875C23.8688 16.9771 24.1259 17.7604 24.1996 18.5833ZM23.7559 21.2288C23.6638 21.4283 23.56 21.6217 23.4434 21.8092C23.5604 21.6213 23.6646 21.4275 23.7559 21.2288ZM23.9892 20.6213C23.9263 20.8208 23.85 21.0171 23.7634 21.2075C23.8504 21.0158 23.9267 20.8204 23.9892 20.6213Z" fill="black"/>
<path id="Vector_2" d="M2.91667 21.9168C4.5275 21.9168 5.83333 20.611 5.83333 19.0002C5.83333 17.3893 4.5275 16.0835 2.91667 16.0835C1.30584 16.0835 0 17.3893 0 19.0002C0 20.611 1.30584 21.9168 2.91667 21.9168Z" fill="black"/>
<path id="Vector_3" d="M30.4516 9.91861C31.0637 9.91861 31.6391 9.68028 32.072 9.24778C32.9662 8.35403 32.9662 6.90028 32.072 6.00694C31.6391 5.57403 31.0637 5.33569 30.4512 5.33569C29.8391 5.33569 29.2633 5.57403 28.8304 6.00694C28.3979 6.43986 28.1595 7.01528 28.1595 7.62736C28.1595 8.23903 28.3979 8.81444 28.8304 9.24778C29.2633 9.68028 29.8391 9.91861 30.4516 9.91861ZM29.125 6.30111C29.4795 5.94694 29.9495 5.75194 30.4512 5.75194C30.9529 5.75194 31.4233 5.94694 31.7775 6.30111C32.5083 7.03194 32.5083 8.22153 31.7775 8.95278C31.4233 9.30694 30.9529 9.50153 30.4516 9.50153C29.9504 9.50153 29.4795 9.30653 29.125 8.95278C28.7708 8.59819 28.5762 8.12736 28.5762 7.62694C28.5762 7.12653 28.7712 6.65569 29.125 6.30111Z" fill="black"/>
<path id="Vector_4" d="M30.4516 28.0813C29.8391 28.0813 29.2633 28.3196 28.8304 28.7525C28.3979 29.185 28.1595 29.7609 28.1595 30.373C28.1595 30.985 28.3979 31.5609 28.8304 31.9938C29.2633 32.4267 29.8391 32.6646 30.4516 32.6646C31.0645 32.6646 31.64 32.4263 32.072 31.9938C32.9658 31.1005 32.9662 29.6463 32.072 28.753C31.64 28.3196 31.0645 28.0813 30.4516 28.0813ZM31.7775 31.6988C31.4233 32.0534 30.9529 32.2475 30.4516 32.2475C29.9504 32.2475 29.4795 32.0521 29.125 31.6988C28.7708 31.3442 28.5762 30.8742 28.5762 30.3725C28.5762 29.8709 28.7712 29.4009 29.125 29.0463C29.4795 28.6921 29.9495 28.4975 30.4516 28.4975C30.9525 28.4975 31.4233 28.693 31.7775 29.0463C32.5083 29.778 32.5083 30.9676 31.7775 31.6988Z" fill="black"/>
<path id="Vector_5" d="M7.70587 9.91861C8.19462 9.91861 8.65629 9.76111 9.0442 9.47986L14.8342 15.2699L15.1467 14.9574L9.37629 9.18694C9.77462 8.76111 9.99795 8.21236 9.99795 7.62736C9.99795 7.01528 9.75962 6.43944 9.3267 6.00653C8.8942 5.57361 8.31879 5.33569 7.70629 5.33569C7.09379 5.33569 6.51795 5.57403 6.08545 6.00653C5.65337 6.43861 5.41545 7.01403 5.41545 7.62694C5.41545 8.23986 5.65337 8.81528 6.08545 9.24736C6.51795 9.68028 7.09337 9.91861 7.70587 9.91861ZM6.38003 6.30111C6.7342 5.94694 7.20462 5.75236 7.70629 5.75236C8.20712 5.75236 8.67795 5.94736 9.03212 6.30111C9.3867 6.65528 9.58129 7.12611 9.58129 7.62736C9.58129 8.12778 9.38587 8.59861 9.03212 8.95319C8.67795 9.30736 8.20754 9.50194 7.70587 9.50194C7.20503 9.50194 6.7342 9.30694 6.38003 8.95319C6.02628 8.59986 5.83212 8.12861 5.83212 7.62736C5.83212 7.12611 6.0267 6.65486 6.38003 6.30111Z" fill="black"/>
</g>
</g>
</svg>
