<svg width="20" height="20" viewBox="0 0 20 20" fill="none" xmlns="http://www.w3.org/2000/svg">
<g id="Vector">
<path d="M0 1.43266C0 0.641875 0.662031 0 1.47812 0H18.5219C19.3383 0 20 0.641875 20 1.43266V18.5676C20 19.3586 19.3383 20 18.5219 20H1.47812C0.662109 20 0 19.3587 0 18.5678V1.43242V1.43266Z" fill="#006699"/>
<path d="M6.07781 16.7373V7.73328H3.085V16.7373H6.07812H6.07781ZM4.58203 6.50414C5.62547 6.50414 6.27508 5.81273 6.27508 4.94867C6.25555 4.06492 5.62547 3.39281 4.60187 3.39281C3.57758 3.39281 2.90859 4.06492 2.90859 4.94859C2.90859 5.81266 3.55797 6.50406 4.56242 6.50406H4.5818L4.58203 6.50414ZM7.73437 16.7373H10.727V11.7096C10.727 11.4409 10.7465 11.1714 10.8255 10.9795C11.0418 10.4416 11.5342 9.88477 12.3612 9.88477C13.4438 9.88477 13.8772 10.7104 13.8772 11.9209V16.7373H16.8697V11.5747C16.8697 8.80914 15.3934 7.52219 13.4245 7.52219C11.8102 7.52219 11.1012 8.42445 10.7073 9.03898H10.7272V7.73359H7.73453C7.77359 8.57828 7.7343 16.7377 7.7343 16.7377L7.73437 16.7373Z" fill="white"/>
</g>
</svg>
