<svg width="51" height="34" viewBox="0 0 51 34" fill="none" xmlns="http://www.w3.org/2000/svg">
<path id="Vector" d="M50.7132 11.7018L45.5364 1.95889C45.2277 1.38409 44.7028 0.950457 44.0736 0.750334C43.4443 0.55021 42.7605 0.59941 42.1676 0.887456L37.0893 3.38275H33.2598L26.1484 0.220475C25.599 -0.0234285 24.979 -0.0665222 24.4002 0.0989567L13.8378 3.12515L8.83241 0.665734C8.23954 0.377791 7.55571 0.328635 6.92651 0.528729C6.29731 0.728823 5.77242 1.16236 5.46358 1.73706L0.286785 11.4801C0.131552 11.7724 0.0370945 12.0921 0.0089242 12.4206C-0.0192461 12.7491 0.0194348 13.0798 0.12271 13.3934C0.225985 13.7071 0.391786 13.9973 0.610439 14.2473C0.829092 14.4973 1.09622 14.702 1.39623 14.8495L6.52399 17.3692L17.9635 26.1601C18.2419 26.3748 18.5634 26.5291 18.9068 26.613L31.1068 29.6104C31.3053 29.6591 31.5091 29.6836 31.7137 29.6836C32.3851 29.6838 33.0294 29.4228 33.5056 28.9575L41.2514 21.3452C41.267 21.3299 41.2818 21.314 41.2962 21.2977L44.5534 17.5529L49.6038 15.0712C49.9038 14.9238 50.1709 14.7191 50.3896 14.469C50.6082 14.219 50.774 13.9287 50.8773 13.6151C50.9806 13.3014 51.0192 12.9707 50.9911 12.6422C50.9629 12.3137 50.8685 11.994 50.7132 11.7018ZM40.5218 19.6409L31.8892 13.4709C31.7436 13.3668 31.5679 13.3114 31.3878 13.3127C31.2077 13.3139 31.0328 13.3719 30.8887 13.4781L28.1944 15.464C27.1722 16.2115 25.9321 16.6151 24.658 16.6151C23.3839 16.6151 22.1438 16.2115 21.1216 15.464L19.9805 14.623C19.884 14.5519 19.8042 14.4612 19.7465 14.3571C19.6887 14.2531 19.6544 14.138 19.6459 14.0198C19.6373 13.9015 19.6547 13.7829 19.6969 13.6718C19.739 13.5607 19.805 13.4599 19.8903 13.376L28.1282 5.28015C28.2864 5.1255 28.5003 5.0384 28.7235 5.03772H33.0757L33.0776 5.03793L33.0805 5.03772H36.7778L43.0143 16.7751L40.5218 19.6409ZM1.72493 12.8839C1.69014 12.7794 1.67705 12.6691 1.68644 12.5596C1.69583 12.45 1.72752 12.3434 1.77961 12.2461L6.95641 2.50304C7.02834 2.36895 7.13621 2.25675 7.26835 2.17857C7.40049 2.10039 7.55187 2.05922 7.70611 2.0595C7.83563 2.05939 7.96339 2.089 8.07922 2.14598L12.569 4.35207L6.6125 15.5623L2.14943 13.3693C2.04921 13.3204 1.96 13.2523 1.88708 13.1689C1.81416 13.0855 1.75902 12.9886 1.72493 12.8839ZM32.315 27.7872C32.2119 27.888 32.0842 27.961 31.9441 27.9991C31.804 28.0372 31.6562 28.0392 31.5151 28.0047L19.3151 25.0073C19.2007 24.9794 19.0936 24.928 19.0008 24.8564L8.04674 16.4386L14.2705 4.72507L24.8714 1.68788C25.0643 1.63257 25.271 1.6469 25.4542 1.72828L29.1746 3.38275H28.7235C28.3917 3.38186 28.063 3.44566 27.7564 3.57047C27.4498 3.69527 27.1715 3.8786 26.9375 4.10983L18.6996 12.2057C18.4437 12.4572 18.2457 12.7598 18.1191 13.093C17.9926 13.4262 17.9403 13.7822 17.966 14.137C17.9916 14.4918 18.0945 14.837 18.2677 15.1493C18.4409 15.4616 18.6804 15.7337 18.97 15.9471L20.1111 16.7881C21.4254 17.749 23.0199 18.268 24.658 18.268C26.2961 18.268 27.8906 17.749 29.2049 16.7881L31.4016 15.1688L39.364 20.8596L32.315 27.7872ZM49.2751 13.1056C49.241 13.2103 49.1858 13.3072 49.1129 13.3906C49.04 13.474 48.9508 13.5421 48.8506 13.591L44.3875 15.7841L38.431 4.57378L42.9208 2.36768C43.1184 2.27161 43.3463 2.25518 43.5561 2.3219C43.7658 2.38862 43.9408 2.53321 44.0436 2.72486L49.2204 12.4677C49.2725 12.5651 49.3042 12.6717 49.3136 12.7812C49.323 12.8908 49.3099 13.0011 49.2751 13.1056ZM22.9489 33.3729C22.9222 33.4784 22.8746 33.5777 22.8088 33.665C22.743 33.7524 22.6603 33.8262 22.5655 33.8821C22.4706 33.9381 22.3655 33.9751 22.2561 33.991C22.1467 34.007 22.0351 34.0016 21.9279 33.9752L15.5834 32.4165C15.1974 32.3211 14.8395 32.1379 14.5387 31.8816L9.79159 27.8262C9.70784 27.755 9.63919 27.6682 9.58959 27.5709C9.54 27.4736 9.51042 27.3677 9.50256 27.2591C9.49469 27.1505 9.5087 27.0415 9.54377 26.9383C9.57885 26.8351 9.6343 26.7397 9.70695 26.6575C9.7796 26.5754 9.86803 26.5081 9.96717 26.4596C10.0663 26.4111 10.1742 26.3823 10.2847 26.3749C10.3952 26.3674 10.5061 26.3815 10.611 26.4162C10.716 26.4509 10.8129 26.5057 10.8963 26.5773L15.6437 30.6327C15.7441 30.7181 15.8635 30.7792 15.9923 30.8111L22.3361 32.3695C22.5528 32.4227 22.739 32.5583 22.8539 32.7465C22.9688 32.9347 23.003 33.16 22.9489 33.3729Z" fill="#8B31B3"/>
</svg>
