<svg width="53" height="33" viewBox="0 0 53 33" fill="none" xmlns="http://www.w3.org/2000/svg">
<path id="Vector" d="M52.3598 15.7086L46.7233 31.8099L46.7221 31.8133C46.583 32.22 46.1886 32.5 45.744 32.5H0.525975C0.80948 27.5196 1.98435 22.4817 3.98573 18.2297L3.98584 18.2295C5.69325 14.5971 7.94501 12.3062 10.7893 12.3062C12.6386 12.3062 14.0438 13.2056 14.9725 14.6763L14.9727 14.6767C15.3336 15.247 15.7932 16.2722 16.2865 17.526C16.7753 18.7685 17.2838 20.2001 17.7453 21.5595C18.2065 22.9181 18.6194 24.2007 18.9171 25.1439C19.0659 25.6154 19.1858 26.0018 19.2685 26.2702C19.3098 26.4044 19.3419 26.509 19.3635 26.5801L19.3881 26.6609L19.3943 26.6814L19.3959 26.6865L19.3963 26.6877L19.3964 26.688L19.875 26.5435L19.3964 26.6881L19.5038 27.0435H19.875H32.7044C34.6203 27.0435 35.927 28.341 35.927 30.0484V30.5484H36.427H44.6925H45.0475L45.1645 30.2133L50.4497 15.079L52.3598 15.7086ZM26 6.68199C26 10.0832 23.1654 12.864 19.6437 12.864C16.1219 12.864 13.2873 10.0832 13.2873 6.68199C13.2873 3.28075 16.1219 0.5 19.6437 0.5C19.8206 0.5 19.9932 0.507077 20.1613 0.521106L19.0431 2.8628C17.224 2.91261 15.7365 4.37585 15.7365 6.19006C15.7365 8.03603 17.2766 9.51863 19.1389 9.51863C21.0012 9.51863 22.5413 8.03603 22.5413 6.19006C22.5413 5.41864 22.266 4.70551 21.8157 4.14045L23.0973 1.48441C24.8448 2.60668 26 4.52107 26 6.68199Z" stroke="black"/>
</svg>
