<svg width="42" height="23" viewBox="0 0 42 23" fill="none" xmlns="http://www.w3.org/2000/svg">
<path id="Vector 1" d="M0.292893 20.7929C-0.0976311 21.1834 -0.0976311 21.8166 0.292893 22.2071C0.683417 22.5976 1.31658 22.5976 1.70711 22.2071L0.292893 20.7929ZM15 7.5L15.7071 6.79289L15 6.08579L14.2929 6.79289L15 7.5ZM24.5 17L23.7929 17.7071L24.5 18.4142L25.2071 17.7071L24.5 17ZM41.5 1C41.5 0.447715 41.0523 0 40.5 0H31.5C30.9477 0 30.5 0.447715 30.5 1C30.5 1.55228 30.9477 2 31.5 2H39.5V10C39.5 10.5523 39.9477 11 40.5 11C41.0523 11 41.5 10.5523 41.5 10V1ZM1.70711 22.2071L15.7071 8.20711L14.2929 6.79289L0.292893 20.7929L1.70711 22.2071ZM14.2929 8.20711L23.7929 17.7071L25.2071 16.2929L15.7071 6.79289L14.2929 8.20711ZM25.2071 17.7071L41.2071 1.70711L39.7929 0.292893L23.7929 16.2929L25.2071 17.7071Z" fill="black"/>
</svg>
