<svg width="7" height="7" viewBox="0 0 7 7" fill="none" xmlns="http://www.w3.org/2000/svg">
<g id="Group 51">
<path id="c" d="M3.40565 4.96253C3.09899 4.96253 2.82377 4.89569 2.58001 4.76202C2.34017 4.62441 2.15145 4.43765 2.01385 4.20176C1.87624 3.96192 1.80743 3.68867 1.80743 3.382C1.80743 3.0714 1.87624 2.79815 2.01385 2.56225C2.15145 2.32635 2.34017 2.14156 2.58001 2.00789C2.82377 1.87421 3.09899 1.80737 3.40565 1.80737C3.66908 1.80737 3.90694 1.85848 4.11925 1.96071C4.33156 2.06293 4.49866 2.21627 4.62054 2.42071L4.30797 2.63302C4.20182 2.47576 4.07011 2.35977 3.91284 2.28507C3.75557 2.21037 3.58455 2.17302 3.39976 2.17302C3.17958 2.17302 2.98104 2.22413 2.80411 2.32635C2.62719 2.42464 2.48761 2.56422 2.38539 2.74507C2.28317 2.92593 2.23205 3.13824 2.23205 3.382C2.23205 3.62577 2.28317 3.83808 2.38539 4.01893C2.48761 4.19979 2.62719 4.34133 2.80411 4.44355C2.98104 4.54184 3.17958 4.59099 3.39976 4.59099C3.58455 4.59099 3.75557 4.55364 3.91284 4.47894C4.07011 4.40424 4.20182 4.29022 4.30797 4.13688L4.62054 4.34919C4.49866 4.54971 4.33156 4.70304 4.11925 4.8092C3.90694 4.91142 3.66908 4.96253 3.40565 4.96253Z" fill="black"/>
<circle id="Ellipse 6" cx="3.25337" cy="3.25337" r="3.00337" stroke="black" stroke-width="0.5"/>
</g>
</svg>
