<svg width="31" height="34" viewBox="0 0 31 34" fill="none" xmlns="http://www.w3.org/2000/svg">
<g id="Group 39">
<path id="Vector" d="M15.5818 26.6001V21.8" stroke="black" stroke-linecap="round" stroke-linejoin="round"/>
<path id="Vector_2" d="M12.3414 29.8H1" stroke="black" stroke-linecap="round" stroke-linejoin="round"/>
<path id="Vector_3" d="M18.8222 29.8H30.1637" stroke="black" stroke-linecap="round" stroke-linejoin="round"/>
<path id="Vector_4" d="M18.8222 29.7999C18.8222 31.5671 17.3714 32.9999 15.5818 32.9999C13.7922 32.9999 12.3414 31.5671 12.3414 29.7999C12.3414 28.0326 13.7922 26.5999 15.5818 26.5999C17.3714 26.5999 18.8222 28.0326 18.8222 29.7999Z" stroke="black" stroke-linecap="round" stroke-linejoin="round"/>
<path id="Vector_5" d="M27.7333 5V17.8C27.7333 20.0091 22.2929 21.8 15.5818 21.8C8.87069 21.8 3.4303 20.0091 3.4303 17.8V5" stroke="black" stroke-linecap="round" stroke-linejoin="round"/>
<path id="Vector_6" d="M27.7333 11.3999C27.7333 13.609 22.2929 15.3999 15.5818 15.3999C8.87069 15.3999 3.4303 13.609 3.4303 11.3999" stroke="black" stroke-linecap="round" stroke-linejoin="round"/>
<path id="Vector_7" d="M27.7333 5C27.7333 7.20912 22.2929 9 15.5818 9C8.87069 9 3.4303 7.20912 3.4303 5C3.4303 2.79086 8.87069 1 15.5818 1C22.2929 1 27.7333 2.79086 27.7333 5Z" stroke="black" stroke-linecap="round" stroke-linejoin="round"/>
</g>
</svg>
