<svg width="22" height="21" viewBox="0 0 22 21" fill="none" xmlns="http://www.w3.org/2000/svg">
<g id="Group">
<path id="Vector" d="M10.7686 0C4.82202 0 0 4.81993 0 10.7658C0 15.5225 3.08552 19.5579 7.36424 20.9815C7.90239 21.0811 8.10002 20.748 8.10002 20.4636C8.10002 20.2069 8.08997 19.3588 8.08541 18.4592C5.0895 19.1104 4.45734 17.189 4.45734 17.189C3.9675 15.9446 3.2617 15.6138 3.2617 15.6138C2.28471 14.9456 3.33534 14.9592 3.33534 14.9592C4.41672 15.0352 4.98612 16.0687 4.98612 16.0687C5.94656 17.7146 7.50528 17.2387 8.11978 16.9637C8.2164 16.2678 8.49553 15.7929 8.80345 15.5241C6.41166 15.2518 3.89723 14.3287 3.89723 10.2036C3.89723 9.02822 4.3179 8.06779 5.00681 7.31387C4.89499 7.04267 4.52643 5.94772 5.11112 4.4648C5.11112 4.4648 6.01539 4.17545 8.07325 5.56836C8.93217 5.32975 9.85341 5.21019 10.7686 5.20614C11.6837 5.21019 12.6057 5.32975 13.4663 5.56836C15.5217 4.17545 16.4247 4.4648 16.4247 4.4648C17.0108 5.94772 16.6421 7.04267 16.5303 7.31387C17.2207 8.06779 17.6385 9.02814 17.6385 10.2036C17.6385 14.3385 15.1193 15.249 12.7215 15.5155C13.1077 15.8496 13.4518 16.5048 13.4518 17.5091C13.4518 18.9496 13.4393 20.109 13.4393 20.4636C13.4393 20.7501 13.6332 21.0858 14.1791 20.9801C18.4554 19.5549 21.5371 15.5209 21.5371 10.7658C21.5371 4.81993 16.7157 0 10.7686 0Z" fill="#161614"/>
<path id="Vector_2" d="M4.03323 15.3366C4.00959 15.3901 3.9253 15.4061 3.8487 15.3695C3.77058 15.3343 3.72666 15.2614 3.752 15.2077C3.77522 15.1526 3.85951 15.1373 3.93746 15.1742C4.01575 15.2093 4.06034 15.2829 4.03323 15.3366ZM4.56294 15.8091C4.51159 15.8567 4.41118 15.8346 4.34302 15.7594C4.27258 15.6843 4.25941 15.584 4.31152 15.5356C4.36447 15.4881 4.46185 15.5103 4.53245 15.5854C4.60289 15.6613 4.61657 15.7611 4.56286 15.8092M4.92636 16.4137C4.86031 16.4595 4.75238 16.4165 4.68574 16.3208C4.61978 16.2251 4.61978 16.1103 4.68718 16.0643C4.75407 16.0183 4.86031 16.0596 4.92788 16.1546C4.99375 16.252 4.99375 16.3668 4.92627 16.4137M5.54086 17.1139C5.48183 17.1789 5.35616 17.1615 5.2641 17.0727C5.17001 16.9859 5.14375 16.8627 5.20295 16.7976C5.26266 16.7324 5.38909 16.7507 5.48183 16.8388C5.57532 16.9254 5.60378 17.0495 5.54086 17.1139ZM6.33509 17.3503C6.30916 17.4346 6.18805 17.4729 6.06609 17.4371C5.94431 17.4002 5.86458 17.3014 5.88916 17.2162C5.91449 17.1313 6.03611 17.0914 6.159 17.1297C6.28061 17.1665 6.36042 17.2645 6.33509 17.3503ZM7.2391 17.4505C7.24214 17.5393 7.13869 17.613 7.01065 17.6146C6.88186 17.6174 6.77772 17.5455 6.77637 17.4582C6.77637 17.3685 6.87746 17.2956 7.00617 17.2935C7.13421 17.2909 7.2391 17.3623 7.2391 17.4505ZM8.12708 17.4165C8.14245 17.5031 8.05343 17.5921 7.92632 17.6157C7.80133 17.6385 7.68562 17.5851 7.66966 17.4992C7.65412 17.4104 7.74483 17.3215 7.86957 17.2984C7.99693 17.2763 8.11086 17.3284 8.12708 17.4165Z" fill="#161614"/>
</g>
</svg>
