<svg width="38" height="44" viewBox="0 0 38 44" fill="none" xmlns="http://www.w3.org/2000/svg">
<g id="Group">
<path id="Vector" d="M14.4218 19.9955C14.1121 19.1919 13.334 18.6216 12.423 18.6216C11.5118 18.6216 10.734 19.1918 10.424 19.9955H9.3345V21.5317H10.4259C10.7357 22.3333 11.5136 22.9037 12.423 22.9037C13.3321 22.9037 14.1102 22.3333 14.4201 21.5317H15.5116V19.9955H14.4218ZM12.423 21.9998C11.7415 21.9998 11.1857 21.4442 11.1857 20.7627C11.1857 20.0812 11.7415 19.5254 12.423 19.5254C13.1045 19.5254 13.6602 20.0812 13.6602 20.7627C13.6602 21.4442 13.1045 21.9998 12.423 21.9998Z" fill="#030104"/>
<path id="Vector_2" d="M18.7383 37.4185C18.0568 37.4185 17.501 37.9744 17.501 38.6556C17.501 39.3371 18.0568 39.8931 18.7383 39.8931C19.4197 39.8931 19.9755 39.3371 19.9755 38.6556C19.9755 37.9743 19.4197 37.4185 18.7383 37.4185Z" fill="#030104"/>
<path id="Vector_3" d="M36.6042 25.6689H35.5616H35.058L35.0616 26.1725C35.1031 31.994 33.0625 36.3154 30.0122 39.1833C26.9546 42.0581 22.8505 43.5021 18.7224 43.5C14.5944 43.4979 10.4677 42.0496 7.36717 39.1722C4.2739 36.3015 2.17274 31.9816 2.13261 26.1726L2.12917 25.6744L1.63096 25.676L0.501755 25.6798L0.500099 17.3899L1.6226 17.3836L2.1123 17.3808L2.11973 16.8911C2.2028 11.4152 4.33242 7.33404 7.45137 4.6146C10.5794 1.88723 14.7292 0.507369 18.8726 0.500029C23.0162 0.492689 27.1197 1.85786 30.1596 4.57634C33.1897 7.28604 35.1958 11.3686 35.1127 16.8742L35.105 17.3817H35.6126H36.5913L36.6042 25.6689ZM21.8267 39.9244H22.3267V39.4244V37.8884V37.3884H21.8267H21.055C20.6062 36.5706 19.7381 36.0144 18.7383 36.0144C17.7386 36.0144 16.8704 36.5707 16.4216 37.3884H15.6498H15.1498V37.8884V39.4244V39.9244H15.6498H16.4237C16.8725 40.7406 17.7404 41.2965 18.7383 41.2965C19.7364 41.2965 20.604 40.7406 21.0528 39.9244H21.8267ZM29.8849 28.9535L29.8848 28.9511C29.8805 27.8614 30.1111 27.1136 30.5101 26.6417C30.8961 26.1851 31.5102 25.9049 32.4703 25.9001L32.9679 25.8976L32.9678 25.4L32.966 15.0232C32.966 15.0228 32.966 15.0224 32.966 15.0221C32.9741 12.5753 32.3519 10.606 30.9621 9.2543C29.575 7.90529 27.5095 7.25583 24.8133 7.25851C24.8132 7.25851 24.8132 7.25851 24.8132 7.25851C24.813 7.25851 24.8128 7.25851 24.8127 7.25851L11.8491 7.25664L11.8453 7.25667C9.18181 7.2764 7.24029 8.00335 5.9715 9.39361C4.71031 10.7755 4.19472 12.7255 4.18621 15.0197L4.18621 15.0214L4.18435 25.4145L4.18426 25.9129L4.68259 25.9146C5.60046 25.9179 6.22533 26.168 6.63003 26.6109C7.0424 27.0622 7.30567 27.7996 7.30921 28.9428C7.30921 28.9431 7.30921 28.9433 7.30921 28.9436L7.31104 37.1088L7.3111 37.1141C7.32525 38.4271 7.79943 39.4416 8.73283 40.1054C9.63589 40.7476 10.9002 41.0114 12.4031 41.0105L12.9028 41.0102V40.5105V40.5017V40.4928V40.484V40.4752V40.4663V40.4575V40.4487V40.4398V40.431V40.4222V40.4133V40.4045V40.3957V40.3869V40.378V40.3692V40.3604V40.3515V40.3427V40.3339V40.3251V40.3162V40.3074V40.2986V40.2897V40.2809V40.2721V40.2632V40.2544V40.2456V40.2368V40.2279V40.2191V40.2103V40.2014V40.1926V40.1838V40.175V40.1661V40.1573V40.1485V40.1396V40.1308V40.122V40.1132V40.1043V40.0955V40.0867V40.0778V40.069V40.0602V40.0514V40.0425V40.0337V40.0249V40.016V40.0072V39.9984V39.9896V39.9807V39.9719V39.9631V39.9543V39.9454V39.9366V39.9278V39.9189V39.9101V39.9013V39.8925V39.8836V39.8748V39.866V39.8571V39.8483V39.8395V39.8307V39.8218V39.813V39.8042V39.7954V39.7865V39.7777V39.7689V39.76V39.7512V39.7424V39.7336V39.7247V39.7159V39.7071V39.6983V39.6894V39.6806V39.6718V39.663V39.6541V39.6453V39.6365V39.6276V39.6188V39.61V39.6012V39.5923V39.5835V39.5747V39.5659V39.557V39.5482V39.5394V39.5306V39.5217V39.5129V39.5041V39.4953V39.4864V39.4776V39.4688V39.4599V39.4511V39.4423V39.4335V39.4246V39.4158V39.407V39.3982V39.3893V39.3805V39.3717V39.3629V39.354V39.3452V39.3364V39.3276V39.3187V39.3099V39.3011V39.2923V39.2834V39.2746V39.2658V39.257V39.2481V39.2393V39.2305V39.2217V39.2128V39.204V39.1952V39.1864V39.1775V39.1687V39.1599V39.1511V39.1422V39.1334V39.1246V39.1158V39.1069V39.0981V39.0893V39.0805V39.0716V39.0628V39.054V39.0452V39.0363V39.0275V39.0187V39.0099V39.001V38.9922V38.9834V38.9746V38.9657V38.9569V38.9481V38.9393V38.9304V38.9216V38.9128V38.904V38.8951V38.8863V38.8775V38.8687V38.8598V38.851V38.8422V38.8334V38.8245V38.8157V38.8069V38.7981V38.7892V38.7804V38.7716V38.7628V38.7539V38.7451V38.7363V38.7275V38.7186V38.7098V38.701V38.6922V38.6833V38.6745V38.6657V38.6569V38.648V38.6392V38.6304V38.6216V38.6128V38.6039V38.5951V38.5863V38.5775V38.5686V38.5598V38.551V38.5422V38.5333V38.5245V38.5157V38.5069V38.498V38.4892V38.4804V38.4716V38.4627V38.4539V38.4451V38.4363V38.4274V38.4186V38.4098V38.401V38.3921V38.3833V38.3745V38.3657V38.3568V38.348V38.3392V38.3304V38.3216V38.3127V38.3039V38.2951V38.2863V38.2774V38.2686V38.2598V38.251V38.2421V38.2333V38.2245V38.2157V38.2068V38.198V38.1892V38.1804V38.1715V38.1627V38.1539V38.1451V38.1363V38.1274V38.1186V38.1098V38.101V38.0921V38.0833V38.0745V38.0657V38.0568V38.048V38.0392V38.0304V38.0215V38.0127V38.0039V37.9951V37.9862V37.9774V37.9686V37.9598V37.9509V37.9421V37.9333V37.9245V37.9156V37.9068V37.898V37.8892V37.8804V37.8715V37.8627V37.8539V37.8451V37.8362V37.8274V37.8186V37.8098V37.8009V37.7921V37.7833V37.7745V37.7656V37.7568V37.748V37.7392V37.7303V37.7215V37.7127V37.7039V37.695V37.6862V37.6774V37.6686V37.6598V37.6509V37.6421V37.6333V37.6245V37.6156V37.6068V37.598V37.5892V37.5803V37.5715V37.5627V37.5539V37.545V37.5362V37.5274V37.5186V37.5097V37.5009V37.4921V37.4833V37.4744V37.4656V37.4568V37.448V37.4391V37.4303V37.4215V37.4127V37.4038V37.395V37.3862V37.3774V37.3685V37.3597V37.3509V37.3421V37.3332V37.3244V37.3156V37.3068V37.2979V37.2891V37.2803V37.2715V37.2626V37.2538V37.245V37.2362V37.2273V37.2185V37.2097V37.2009V37.192V37.1832V37.1744V37.1656V37.1567V37.1479V37.1391V37.1303V37.1214V37.1126V37.1038V37.095V37.0861V37.0773V37.0685V37.0597V37.0508V37.042V37.0332V37.0244V37.0155V37.0067V36.9979V36.9891V36.9802V36.9714V36.9626V36.9538V36.9449V36.9361V36.9273V36.9185V36.9096V36.9008V36.892V36.8832V36.8743V36.8655V36.8567V36.8478V36.839V36.8302V36.8214V36.8125V36.8037V36.7949V36.7861V36.7772V36.7684V36.7596V36.7508V36.7419V36.7331V36.7243V36.7155V36.7066V36.6978V36.689V36.6801V36.6713V36.6625V36.6537V36.6448V36.636V36.6272V36.6184V36.6095V36.6007V36.5919V36.583V36.5742V36.5654V36.5566V36.5477V36.5389V36.5301V36.5213V36.5124V36.5036V36.4948V36.486V36.4771V36.4683V36.4595V36.4506V36.4418V36.433V36.4242V36.4153V36.4065V36.3977V36.3888V36.38V36.3712V36.3624V36.3535V36.3447V36.3359V36.3344C17.1581 34.7311 20.8631 34.9793 24.2583 36.3276V40.514V41.0093L24.7536 41.014C26.1193 41.027 27.3979 40.8552 28.3444 40.2609C29.3376 39.6372 29.885 38.602 29.8774 37.1059L29.8849 28.9535Z" stroke="black"/>
<path id="Vector_4" d="M26.7101 19.9955C26.4002 19.1919 25.6223 18.6216 24.7112 18.6216C23.8001 18.6216 23.0221 19.1918 22.7123 19.9955H21.6228V21.5317H22.7142C23.024 22.3333 23.8019 22.9037 24.7112 22.9037C25.6204 22.9037 26.3984 22.3333 26.7082 21.5317H27.7995V19.9955H26.7101ZM24.7112 21.9998C24.0298 21.9998 23.474 21.4442 23.474 20.7627C23.474 20.0812 24.0298 19.5254 24.7112 19.5254C25.3925 19.5254 25.9483 20.0812 25.9483 20.7627C25.9483 21.4442 25.3925 21.9998 24.7112 21.9998Z" fill="#030104"/>
</g>
</svg>
