<svg width="20" height="20" viewBox="0 0 20 20" fill="none" xmlns="http://www.w3.org/2000/svg">
<g id="Vector">
<path d="M16.5386 4.66234C16.5386 3.99765 15.9999 3.46094 15.3377 3.46094C14.6754 3.46094 14.1362 3.99765 14.1362 4.66234C14.1362 5.32459 14.6754 5.8613 15.3377 5.8613C15.9999 5.8613 16.5386 5.32459 16.5386 4.66234Z" fill="url(#paint0_linear_61_26)"/>
<path d="M18.1388 14.0404C18.0943 15.0154 17.9312 15.5452 17.7958 15.8971C17.614 16.3636 17.397 16.6972 17.0451 17.0471C16.6972 17.397 16.3636 17.6135 15.8971 17.7934C15.5452 17.9308 15.0134 18.0943 14.0384 18.1408C12.9843 18.1872 12.6719 18.1971 9.99876 18.1971C7.32809 18.1971 7.01325 18.1872 5.95911 18.1408C4.98407 18.0943 4.45478 17.9308 4.10288 17.7934C3.63389 17.6135 3.30279 17.397 2.95289 17.0471C2.60051 16.6972 2.38356 16.3636 2.20417 15.8971C2.06873 15.5452 1.9032 15.0154 1.86116 14.0404C1.80979 12.9862 1.80038 12.6689 1.80038 10.0012C1.80038 7.32809 1.80979 7.01325 1.86116 5.95911C1.9032 4.98407 2.06873 4.45478 2.20417 4.09991C2.38356 3.63389 2.60051 3.30227 2.95289 2.95237C3.30279 2.60299 3.63389 2.38601 4.10288 2.20417C4.45478 2.06628 4.98407 1.90516 5.95911 1.85872C7.01325 1.81224 7.32809 1.80038 9.99876 1.80038C12.6719 1.80038 12.9843 1.81224 14.0384 1.85872C15.0134 1.90516 15.5452 2.06628 15.8971 2.20417C16.3636 2.38601 16.6972 2.60299 17.0451 2.95237C17.397 3.30227 17.614 3.63389 17.7958 4.09991C17.9312 4.45478 18.0943 4.98407 18.1388 5.95911C18.1877 7.01325 18.1996 7.32809 18.1996 10.0012C18.1996 12.6689 18.1877 12.9862 18.1388 14.0404ZM19.9392 5.87709C19.8903 4.81157 19.7222 4.08361 19.4727 3.44956C19.2187 2.79177 18.8781 2.2343 18.3207 1.67684C17.7657 1.12186 17.2082 0.78134 16.5504 0.524365C15.9139 0.27725 15.1884 0.107231 14.1224 0.0607878C13.0564 0.00937809 12.7159 0 9.99876 0C7.28409 0 6.94112 0.00937809 5.87512 0.0607878C4.81157 0.107231 4.08657 0.27725 3.44708 0.524365C2.79176 0.78134 2.2343 1.12186 1.67932 1.67684C1.12186 2.2343 0.781338 2.79177 0.524846 3.44956C0.277731 4.08361 0.109714 4.81157 0.0583039 5.87709C0.0118609 6.94309 0 7.28409 0 10.0012C0 12.7159 0.0118609 13.0564 0.0583039 14.1224C0.109714 15.1859 0.277731 15.9134 0.524846 16.5504C0.781338 17.2058 1.12186 17.7657 1.67932 18.3207C2.2343 18.8757 2.79176 19.2187 3.44708 19.4752C4.08657 19.7222 4.81157 19.8903 5.87512 19.9392C6.94112 19.9881 7.28409 20 9.99876 20C12.7159 20 13.0564 19.9881 14.1224 19.9392C15.1884 19.8903 15.9139 19.7222 16.5504 19.4752C17.2082 19.2187 17.7657 18.8757 18.3207 18.3207C18.8781 17.7657 19.2187 17.2058 19.4727 16.5504C19.7222 15.9134 19.8903 15.1859 19.9392 14.1224C19.9881 13.0564 20 12.7159 20 10.0012C20 7.28409 19.9881 6.94309 19.9392 5.87709Z" fill="url(#paint1_linear_61_26)"/>
<path d="M9.99876 13.3317C8.15883 13.3317 6.66584 11.8411 6.66584 10.0012C6.66584 8.15832 8.15883 6.66584 9.99876 6.66584C11.8392 6.66584 13.3342 8.15832 13.3342 10.0012C13.3342 11.8411 11.8392 13.3317 9.99876 13.3317ZM9.99876 4.86298C7.16251 4.86298 4.86546 7.16496 4.86546 10.0012C4.86546 12.835 7.16251 15.1345 9.99876 15.1345C12.835 15.1345 15.1345 12.835 15.1345 10.0012C15.1345 7.16496 12.835 4.86298 9.99876 4.86298Z" fill="url(#paint2_linear_61_26)"/>
</g>
<defs>
<linearGradient id="paint0_linear_61_26" x1="-116.185" y1="-116.082" x2="35.0749" y2="35.0505" gradientUnits="userSpaceOnUse">
<stop stop-color="#FFD521"/>
<stop offset="0.05" stop-color="#FFD521"/>
<stop offset="0.501119" stop-color="#F50000"/>
<stop offset="0.95" stop-color="#B900B4"/>
<stop offset="0.950079" stop-color="#B900B4"/>
<stop offset="1" stop-color="#B900B4"/>
</linearGradient>
<linearGradient id="paint1_linear_61_26" x1="0.180397" y1="0.18188" x2="18.3491" y2="18.3506" gradientUnits="userSpaceOnUse">
<stop stop-color="#FFD521"/>
<stop offset="0.05" stop-color="#FFD521"/>
<stop offset="0.501119" stop-color="#F50000"/>
<stop offset="0.95" stop-color="#B900B4"/>
<stop offset="0.950079" stop-color="#B900B4"/>
<stop offset="1" stop-color="#B900B4"/>
</linearGradient>
<linearGradient id="paint2_linear_61_26" x1="0.185108" y1="19.8186" x2="18.3494" y2="1.65427" gradientUnits="userSpaceOnUse">
<stop stop-color="#FFD521"/>
<stop offset="0.05" stop-color="#FFD521"/>
<stop offset="0.501119" stop-color="#F50000"/>
<stop offset="0.95" stop-color="#B900B4"/>
<stop offset="0.950079" stop-color="#B900B4"/>
<stop offset="1" stop-color="#B900B4"/>
</linearGradient>
</defs>
</svg>
