<svg width="20" height="15" viewBox="0 0 20 15" fill="none" xmlns="http://www.w3.org/2000/svg">
<g id="Vector">
<path d="M1.36364 15H4.54545V7.27462L0 3.86637V13.6367C0 14.3899 0.610227 15 1.36364 15Z" fill="#4285F4"/>
<path d="M15.4545 15H18.6364C19.3898 15 20 14.3899 20 13.6367V3.86637L15.4545 7.27462V15Z" fill="#34A853"/>
<path d="M15.4545 1.36698V7.27462L20 3.86637V2.04863C20 0.36382 18.0761 -0.598444 16.7273 0.412671L15.4545 1.36698Z" fill="#FBBC04"/>
<path d="M4.54545 7.27462L4.54545 1.36698L10 5.45689L15.4545 1.36698V7.27462L10 11.3645L4.54545 7.27462Z" fill="#EA4335"/>
<path d="M0 2.04863V3.86637L4.54545 7.27462L4.54545 1.36698L3.27273 0.412664C1.92386 -0.598451 0 0.363812 0 2.04863Z" fill="#C5221F"/>
</g>
</svg>
